<?xml version="1.0" encoding="utf-8"?>
<!-- Generator: Adobe Illustrator 15.1.0, SVG Export Plug-In . SVG Version: 6.00 Build 0)  -->
<!DOCTYPE svg PUBLIC "-//W3C//DTD SVG 1.1 Tiny//EN" "http://www.w3.org/Graphics/SVG/1.1/DTD/svg11-tiny.dtd">
<svg version="1.1" baseProfile="tiny" id="Layer_1" xmlns="http://www.w3.org/2000/svg" xmlns:xlink="http://www.w3.org/1999/xlink"
	 x="0px" y="0px" width="76.4px" height="76.4px" viewBox="0 0 76.4 76.4" overflow="inherit" xml:space="preserve">
<g>
	<polygon fill="#FFFFFF" points="0,38.9 0,38.9 0,38.9 	"/>
	<polygon fill="#FFFFFF" points="12,0 12,0 12,0 	"/>
	<rect x="34.8" y="6.4" transform="matrix(0.7071 0.7071 -0.7071 0.7071 17.342 -29.137)" fill="#FFFFFF" width="18" height="0"/>
	<polygon fill="#FFFFFF" points="0,12 0,13.4 12,25.5 12.7,24.8 0.7,12.7 12.7,0.7 37.5,25.5 38.2,24.7 13.4,0 12,0 12,0 	"/>
	
		<rect x="35.7" y="44.2" transform="matrix(-0.7071 0.7071 -0.7071 -0.7071 106.6946 44.1943)" fill="#FFFFFF" width="17" height="0"/>
	<polygon fill="#FFFFFF" points="12,50.9 12.7,50.2 0.7,38.2 12.7,26.2 37.5,50.9 38.2,50.2 38.2,50.2 13.4,25.5 12.7,24.8 12,25.5 
		0,37.5 0,38.9 0,38.9 	"/>
	<polygon fill="#FFFFFF" points="12,76.4 12.7,75.7 0.7,63.6 12.7,51.6 37.5,76.4 38.2,75.7 12.7,50.2 12,50.9 0,62.9 0,64.3 
		12,76.4 	"/>
	<polygon fill="#FFFFFF" points="12.7,75.7 12.7,75.7 12,76.4 12,76.4 12,76.4 13.4,76.4 	"/>
	<rect x="70.4" y="61.9" fill="#FFFFFF" width="0" height="17"/>
	<polygon fill="#FFFFFF" points="64.3,76.4 76.4,64.3 75.7,63.6 76.4,62.9 76.4,62.9 62.9,76.4 	"/>
	<polygon fill="#FFFFFF" points="50.9,64.3 50.2,63.6 50.2,63.6 38.2,75.7 37.5,76.4 37.5,76.4 38.9,76.4 	"/>
	<polygon fill="#FFFFFF" points="51.6,38.2 50.9,38.9 50.2,38.2 38.2,50.2 37.5,50.9 38.2,51.6 50.2,63.6 50.2,63.6 50.9,64.3 
		50.9,64.3 76.4,38.9 76.4,38.9 75.7,38.2 50.9,62.9 38.9,50.9 76.4,13.4 76.4,13.4 	"/>
	<polygon fill="#FFFFFF" points="38.9,25.5 50.9,13.4 50.2,12.7 50.2,12.7 38.2,24.7 37.5,25.5 37.5,25.5 50.2,38.2 50.2,38.2 
		50.9,38.9 51.6,38.2 76.4,13.4 75.7,12.7 76.4,12 76.4,12 50.9,37.5 	"/>
	<polygon fill="#FFFFFF" points="50.2,12.7 50.9,13.4 50.9,13.4 64.3,0 62.9,0 50.9,12 38.9,0 37.5,0 	"/>
	<polygon fill="#FFFFFF" points="75.7,12.7 76.4,13.4 76.4,13.4 76.4,12 	"/>
	<polygon fill="#FFFFFF" points="75.7,38.2 76.4,38.9 76.4,37.5 75.7,38.2 	"/>
	<polygon fill="#FFFFFF" points="76.4,64.3 76.4,64.3 76.4,62.9 75.7,63.6 	"/>
</g>
</svg>
